<?xml version="1.0" encoding="utf-8"?>
<!-- Generator: Adobe Illustrator 22.1.0, SVG Export Plug-In . SVG Version: 6.00 Build 0)  -->
<svg version="1.1" id="Layer_1" xmlns="http://www.w3.org/2000/svg" xmlns:xlink="http://www.w3.org/1999/xlink" x="0px" y="0px"
	 viewBox="0 0 400 400" style="enable-background:new 0 0 400 400;" xml:space="preserve">
<style type="text/css">
	.st0{fill:#FFFFFF;}
</style>
<g>
	<g>
		<path class="st0" d="M107.6,212.7c19.8-7.1,40-13.2,60.4-18.3c5-1.2,9.9-2.4,14.9-3.5c5.3-1.2,13.1-4.3,18.5-2.8
			c5.7,1.6,6.4,8.7,4,13.3c-2.3,4.3-6.9,7-11,9.3c-30.9,17.5-62.4,33.9-90.1,56.3c-15.2,12.3-28.9,26.4-40.1,42.5
			c-0.9,1.3,0.9,2.3,2,1.5c22.8-18.6,49.7-30.9,77.3-40.8c13.5-4.8,27.1-9.2,40.8-13.4c7.9-2.5,15.8-4.4,24.1-3.8
			c8.4,0.6,16.5,3.1,24.8,4.4c11.2,1.8,23.5,1.7,32.6-5.9c8.1-6.9,11.4-17.7,12.6-27.9c1.6-13.5,0-27.7-2.6-41
			c-1.5-7.5-3.6-15-6.1-22.2c-1.1-3-3.7-7-3.8-10.2c-0.1-4.3,3.5-7,5.2-10.6c3.4-7.1,3-14.7,8.6-20.9c4.8-5.4,11.4-8.8,17.7-12.2
			c14.1-7.7,26.9-16.9,38.3-28.2c0.9-0.9,0-2.4-1.2-2.1c-12.8,3.7-25,9-36.7,15.4c-5.8,3.2-11.5,6.5-17.1,10c-3,1.9-6,4-9.1,5.7
			c-4.2,2.4-7.4,2.3-12,2c-9.5-0.5-22,3.6-26.2,13.1c-1.8,4-0.4,7.3,1.7,10.9c3.7,6.4,7,12.7,9.1,19.8c2,6.5,3.1,13.3,3.4,20.1
			c0.1,2.9,0.1,5.8-0.1,8.6c-0.2,2.1-0.4,4.1-1,6.1c-0.8,2.6-4.2,8.8-8.1,7.4c-2.5-0.9-1.7-6.2-1.9-8.3c-0.2-3.1-0.5-6.2-1-9.3
			c-1-6-2.8-12-6-17.2c-4.9-8.1-12.9-14-22.5-14.4c-12.7-0.5-24.4,7.6-34.7,13.9c-27.2,16.5-53.2,34.8-77.7,55.2
			c-0.9,0.8,0.1,2.5,1.2,2.1C99.7,215.8,103.6,214.3,107.6,212.7c1.5-0.6,0.8-3-0.7-2.4c-4,1.6-7.9,3.1-11.9,4.7
			c0.4,0.7,0.8,1.4,1.2,2.1c24.8-20.6,51.2-39.1,78.8-55.7c12.8-7.7,29.5-18.6,44-8.4c13.7,9.7,14.8,28,15.4,43.2
			c0,0.6,0.4,1,0.9,1.2c15.9,5.2,15.3-20.4,14.3-29.2c-0.9-8.1-2.9-16.1-6.1-23.7c-1.5-3.6-3.2-7-5.2-10.3
			c-3.3-5.5-4.6-9.7,0.3-14.8c3.2-3.2,7.3-5.5,11.7-6.7c4.8-1.3,9.1-0.4,14-0.5c7.6-0.3,14.3-6.5,20.5-10.3
			c15.8-9.6,32.3-18.1,50.1-23.2c-0.4-0.7-0.8-1.4-1.2-2.1c-10.7,10.5-22.7,19.5-35.9,26.7c-9.6,5.3-20.8,10.8-25.2,21.6
			c-1,2.6-1.5,5.3-2.2,7.9c-1,4.2-2.7,7.2-5.3,10.6c-3.7,4.7-1.3,9.1,0.6,14.1c5.7,14.8,9.1,30.5,10.2,46.4
			c0.8,12.6,0.8,26.6-5.6,37.9c-8.2,14.5-24.4,15.5-39.1,12.7c-7.3-1.4-14.5-3.3-22-4c-7.3-0.6-14.3,0.5-21.3,2.5
			c-13.8,4-27.6,8.6-41.1,13.3c-29.4,10.3-58.1,23.1-82.4,42.9c0.7,0.5,1.3,1,2,1.5c23.2-33.4,57.1-56.8,91.8-77
			c8.7-5,17.4-9.9,26.2-14.8c7.2-4,16.2-7.4,21.4-14c3.6-4.5,5-11.7,1-16.5c-5.5-6.5-16.9-1.8-23.6-0.4c-25.9,5.7-51.3,13.1-76.3,22
			C105.4,210.8,106.1,213.2,107.6,212.7z"/>
	</g>
</g>
<g>
	<g>
		<path class="st0" d="M276.4,104.7c-18.2-11.1-38.8-18.2-60-20c-22-1.9-42.5,3.1-62.2,12.8c-4.9,2.4-9.7,5-14.5,7.7
			c-4.9,2.7-10.2,5.2-14.5,8.7c-7.8,6.3-7.4,16.8-13,24.5c-3.2,4.4-7.3,8-10.2,12.6c-2.7,4.3-4.5,9.2-5.9,14.1
			c-3.4,11.9-5.7,24.4-7.4,36.7c-3.3,23.5-2.1,49.7,12.3,69.6c0.9,1.3,3.1,0,2.2-1.3c-12.4-17.3-14.9-39.6-12.9-60.3
			c1.1-12.1,3.7-24.1,6.3-36c2.5-11.1,6-20.4,13.6-29c2.7-3.1,5.4-6.2,7.2-10c2.1-4.4,2.7-9.3,5-13.6c2.4-4.5,6.6-7,10.8-9.5
			c5-2.9,10-5.7,15.1-8.4c19.2-10.2,39-17.1,61-16.6c23.3,0.6,46.2,8,66,20.1C276.5,107.7,277.8,105.5,276.4,104.7L276.4,104.7z"/>
	</g>
</g>
<g>
	<g>
		<path class="st0" d="M109.7,284.1c17.9,20.1,42.5,33.9,69.1,38.1c26.7,4.3,54.5-0.4,78.7-12.4c21.4-10.6,40.1-27.1,52.3-47.7
			c12.7-21.4,17.1-46.5,13.7-71c-4-29.2-18.2-56.5-38.2-77.9c-1.1-1.2-2.9,0.6-1.8,1.8c34.1,36.4,51.1,92.4,27.9,139
			c-21.8,43.8-71.6,69.7-119.8,67.1c-30.7-1.7-59.7-15.8-80.1-38.8C110.4,281.1,108.6,282.9,109.7,284.1L109.7,284.1z"/>
	</g>
</g>
</svg>
