<?xml version="1.0" encoding="utf-8"?>
<!-- Generator: Adobe Illustrator 22.1.0, SVG Export Plug-In . SVG Version: 6.00 Build 0)  -->
<svg version="1.1" id="Layer_1" xmlns="http://www.w3.org/2000/svg" xmlns:xlink="http://www.w3.org/1999/xlink" x="0px" y="0px"
	 viewBox="0 0 400 400" style="enable-background:new 0 0 400 400;" xml:space="preserve">
<style type="text/css">
	.st0{fill:#FFFFFF;}
</style>
<g>
	<g>
		<path class="st0" d="M295.2,212.7c-19.9-7.1-40.1-13.2-60.6-18.3c-5-1.2-9.9-2.4-14.9-3.5c-5.3-1.2-13.1-4.3-18.6-2.8
			c-5.7,1.6-6.4,8.7-4,13.3c2.3,4.3,6.9,7,11,9.3c31,17.5,62.6,33.9,90.4,56.3c15.2,12.3,29,26.4,40.2,42.5c0.9,1.3-0.9,2.3-2,1.5
			c-22.9-18.6-49.9-30.9-77.5-40.8c-13.5-4.8-27.2-9.2-40.9-13.4c-7.9-2.5-15.8-4.4-24.2-3.8c-8.4,0.6-16.6,3.1-24.9,4.4
			c-11.2,1.8-23.6,1.7-32.7-5.9c-8.1-6.9-11.4-17.7-12.6-27.9c-1.6-13.5,0-27.7,2.6-41c1.5-7.5,3.6-15,6.1-22.2
			c1.1-3,3.7-7,3.8-10.2c0.1-4.3-3.5-7-5.2-10.6c-3.4-7.1-3-14.7-8.6-20.9c-4.8-5.4-11.4-8.8-17.8-12.2c-14.1-7.7-27-16.9-38.4-28.2
			c-0.9-0.9,0-2.4,1.2-2.1c12.8,3.7,25.1,9,36.8,15.4c5.8,3.2,11.5,6.5,17.2,10c3,1.9,6,4,9.1,5.7c4.2,2.4,7.4,2.3,12,2
			c9.5-0.5,22.1,3.6,26.3,13.1c1.8,4,0.4,7.3-1.7,10.9c-3.7,6.4-7,12.7-9.1,19.8c-2,6.5-3.1,13.3-3.4,20.1c-0.1,2.9-0.1,5.8,0.1,8.6
			c0.2,2.1,0.4,4.1,1,6.1c0.8,2.6,4.2,8.8,8.1,7.4c2.5-0.9,1.7-6.2,1.9-8.3c0.2-3.1,0.5-6.2,1-9.3c1-6,2.8-12,6-17.2
			c4.9-8.1,12.9-14,22.6-14.4c12.7-0.5,24.5,7.6,34.8,13.9c27.3,16.5,53.4,34.8,77.9,55.2c0.9,0.8-0.1,2.5-1.2,2.1
			C303.1,215.8,299.2,214.3,295.2,212.7c-1.5-0.6-0.8-3,0.7-2.4c4,1.6,7.9,3.1,11.9,4.7c-0.4,0.7-0.8,1.4-1.2,2.1
			c-24.9-20.6-51.4-39.1-79-55.7c-12.8-7.7-29.6-18.6-44.1-8.4c-13.7,9.7-14.8,28-15.4,43.2c0,0.6-0.4,1-0.9,1.2
			c-15.9,5.2-15.3-20.4-14.3-29.2c0.9-8.1,2.9-16.1,6.1-23.7c1.5-3.6,3.2-7,5.2-10.3c3.3-5.5,4.6-9.7-0.3-14.8
			c-3.2-3.2-7.3-5.5-11.7-6.7c-4.8-1.3-9.1-0.4-14-0.5c-7.6-0.3-14.3-6.5-20.6-10.3c-15.8-9.6-32.4-18.1-50.3-23.2
			c0.4-0.7,0.8-1.4,1.2-2.1c10.7,10.5,22.8,19.5,36,26.7c9.6,5.3,20.9,10.8,25.3,21.6c1,2.6,1.5,5.3,2.2,7.9c1,4.2,2.7,7.2,5.3,10.6
			c3.7,4.7,1.3,9.1-0.6,14.1c-5.7,14.8-9.1,30.5-10.2,46.4c-0.8,12.6-0.8,26.6,5.6,37.9c8.2,14.5,24.5,15.5,39.2,12.7
			c7.3-1.4,14.5-3.3,22.1-4c7.3-0.6,14.3,0.5,21.4,2.5c13.8,4,27.7,8.6,41.2,13.3c29.5,10.3,58.3,23.1,82.6,42.9
			c-0.7,0.5-1.3,1-2,1.5c-23.3-33.4-57.3-56.8-92.1-77c-8.7-5-17.5-9.9-26.3-14.8c-7.2-4-16.2-7.4-21.5-14c-3.6-4.5-5-11.7-1-16.5
			c5.5-6.5,17-1.8,23.7-0.4c26,5.7,51.5,13.1,76.5,22C297.4,210.8,296.7,213.2,295.2,212.7z"/>
	</g>
</g>
<g>
	<g>
		<path class="st0" d="M125.9,104.7c18.3-11.1,38.9-18.2,60.2-20c22.1-1.9,42.6,3.1,62.4,12.8c4.9,2.4,9.7,5,14.5,7.7
			c4.9,2.7,10.2,5.2,14.5,8.7c7.8,6.3,7.4,16.8,13,24.5c3.2,4.4,7.3,8,10.2,12.6c2.7,4.3,4.5,9.2,5.9,14.1
			c3.4,11.9,5.7,24.4,7.4,36.7c3.3,23.5,2.1,49.7-12.3,69.6c-0.9,1.3-3.1,0-2.2-1.3c12.4-17.3,14.9-39.6,12.9-60.3
			c-1.1-12.1-3.7-24.1-6.3-36c-2.5-11.1-6-20.4-13.6-29c-2.7-3.1-5.4-6.2-7.2-10c-2.1-4.4-2.7-9.3-5-13.6c-2.4-4.5-6.6-7-10.8-9.5
			c-5-2.9-10-5.7-15.1-8.4c-19.3-10.2-39.1-17.1-61.2-16.6c-23.4,0.6-46.3,8-66.2,20.1C125.8,107.7,124.5,105.5,125.9,104.7
			L125.9,104.7z"/>
	</g>
</g>
<g>
	<g>
		<path class="st0" d="M293.1,284.1c-18,20.1-42.6,33.9-69.3,38.1c-26.8,4.3-54.7-0.4-78.9-12.4c-21.5-10.6-40.2-27.1-52.5-47.7
			c-12.7-21.4-17.2-46.5-13.7-71c4-29.2,18.3-56.5,38.3-77.9c1.1-1.2,2.9,0.6,1.8,1.8c-34.2,36.4-51.3,92.4-28,139
			c21.9,43.8,71.8,69.7,120.2,67.1c30.8-1.7,59.9-15.8,80.3-38.8C292.4,281.1,294.2,282.9,293.1,284.1L293.1,284.1z"/>
	</g>
</g>
</svg>
